D:\PredSim\limbproperties\Ratio75_downhill10\Ratio75_downhill10_IK_walking_1.5.mot
version=1
nRows=4
nColumns=124
inDegrees=yes
endheader
                time	         pelvis_tilt	         pelvis_list	     pelvis_rotation	           pelvis_tx	           pelvis_ty	           pelvis_tz	       hip_flexion_r	     hip_adduction_r	      hip_rotation_r	        knee_angle_r	       ankle_angle_r	    subtalar_angle_r	         mtp_angle_r	       hip_flexion_l	     hip_adduction_l	      hip_rotation_l	        knee_angle_l	       ankle_angle_l	    subtalar_angle_l	         mtp_angle_l	    lumbar_extension	      lumbar_bending	     lumbar_rotation	          arm_flex_r	           arm_add_r	           arm_rot_r	        elbow_flex_r	          arm_flex_l	           arm_add_l	           arm_rot_l	        elbow_flex_l	glut_med1_r/activation	glut_med2_r/activation	glut_med3_r/activation	glut_min1_r/activation	glut_min2_r/activation	glut_min3_r/activation	semimem_r/activation	semiten_r/activation	bifemlh_r/activation	bifemsh_r/activation	    sar_r/activation	add_long_r/activation	add_brev_r/activation	add_mag1_r/activation	add_mag2_r/activation	add_mag3_r/activation	    tfl_r/activation	   pect_r/activation	   grac_r/activation	glut_max1_r/activation	glut_max2_r/activation	glut_max3_r/activation	iliacus_r/activation	  psoas_r/activation	quad_fem_r/activation	    gem_r/activation	   peri_r/activation	rect_fem_r/activation	vas_med_r/activation	vas_int_r/activation	vas_lat_r/activation	med_gas_r/activation	lat_gas_r/activation	 soleus_r/activation	tib_post_r/activation	flex_dig_r/activation	flex_hal_r/activation	tib_ant_r/activation	per_brev_r/activation	per_long_r/activation	per_tert_r/activation	ext_dig_r/activation	ext_hal_r/activation	glut_med1_l/activation	glut_med2_l/activation	glut_med3_l/activation	glut_min1_l/activation	glut_min2_l/activation	glut_min3_l/activation	semimem_l/activation	semiten_l/activation	bifemlh_l/activation	bifemsh_l/activation	    sar_l/activation	add_long_l/activation	add_brev_l/activation	add_mag1_l/activation	add_mag2_l/activation	add_mag3_l/activation	    tfl_l/activation	   pect_l/activation	   grac_l/activation	glut_max1_l/activation	glut_max2_l/activation	glut_max3_l/activation	iliacus_l/activation	  psoas_l/activation	quad_fem_l/activation	    gem_l/activation	   peri_l/activation	rect_fem_l/activation	vas_med_l/activation	vas_int_l/activation	vas_lat_l/activation	med_gas_l/activation	lat_gas_l/activation	 soleus_l/activation	tib_post_l/activation	flex_dig_l/activation	flex_hal_l/activation	tib_ant_l/activation	per_brev_l/activation	per_long_l/activation	per_tert_l/activation	ext_dig_l/activation	ext_hal_l/activation	 ercspn_r/activation	 ercspn_l/activation	 intobl_r/activation	 intobl_l/activation	 extobl_r/activation	 extobl_l/activation	
          1.47523271	          1.94842516	         -2.65116704	         -2.62287326	          2.19526374	          0.89719742	          0.00231344	        -14.48466763	          4.68194945	          6.00002204	        -22.24270434	         11.11663352	         11.12618284	         16.69898649	         25.86388084	         -1.39049657	         -2.34339842	         -9.53045269	         10.12700859	          1.47520724	          0.17817282	          2.36839906	          4.16268202	          2.36161361	         -0.49304562	        -13.73501550	         12.81693542	         21.41968323	         -9.40678559	        -13.49334360	         13.78724921	         22.45201425	          0.17602312	          0.05000057	          0.05000025	          0.21644457	          0.11786683	          0.05000035	          0.05000085	          0.05000015	          0.05000019	          0.05000015	          0.05818848	          0.05046615	          0.05000025	          0.05000109	          0.05000223	          0.05000100	          0.13510709	          0.05000147	          0.05000068	          0.05000533	          0.05000162	          0.05000160	          0.16683832	          0.80456863	          0.05000039	          0.05000038	          0.05000018	          0.36221164	          0.10577737	          0.10264876	          0.06658695	          0.26931291	          0.25934019	          0.29579549	          0.24451800	          0.19388976	          0.23537370	          0.05000001	          0.11229640	          0.15917229	          0.05000006	          0.05000001	          0.05000008	          0.09800628	          0.05000237	          0.07498024	          0.05819586	          0.05819524	          0.05817535	          0.19353910	          0.12430754	          0.22155924	          0.06773488	          0.05000082	          0.06773473	          0.07426343	          0.09141875	          0.09837620	          0.19647170	          0.05000061	          0.05814507	          0.07906739	          0.05777988	          0.11466040	          0.21157255	          0.05819589	          0.06773478	          0.05000028	          0.05000333	          0.05819568	          0.05000017	          0.05000018	          0.05000019	          0.05000014	          0.07018738	          0.06773503	          0.06670682	          0.06773495	          0.06772666	          0.06773477	          0.47022601	          0.15304072	          0.15482676	          0.13026951	          0.56607870	          0.28995991	          0.05000001	          0.05054414	          0.05000006	          0.10669978	          0.05000003	          0.11705401	
          1.48506760	          1.95842446	         -2.69213086	         -2.73265256	          2.21303412	          0.89574419	          0.00202887	        -14.92616041	          4.49919214	          5.72051130	        -23.45028117	          9.76310273	         11.92130071	         17.96465606	         25.60702601	         -1.27798877	         -2.13164909	         -9.38508369	          9.41773635	          1.45707269	          0.21213719	          2.56107572	          4.00074455	          2.41988172	         -0.81710200	        -13.78793623	         13.05283299	         21.72668748	        -10.01224364	        -13.52228270	         13.57699403	         22.26692903	          0.15123370	          0.05000043	          0.05000014	          0.18596259	          0.10126763	          0.06243731	          0.05000754	          0.05000018	          0.05000033	          0.05000023	          0.05000150	          0.15051426	          0.05214795	          0.05000077	          0.05000095	          0.05000102	          0.11607994	          0.05000091	          0.05000052	          0.05000082	          0.05000089	          0.05000065	          0.14334240	          0.83428993	          0.05000013	          0.09701526	          0.06899386	          0.31120120	          0.12231509	          0.14468490	          0.05720958	          0.23138544	          0.22281719	          0.25413845	          0.21008244	          0.16658431	          0.20222599	          0.05000001	          0.09648172	          0.13675606	          0.05000010	          0.05000003	          0.05000010	          0.18515438	          0.05422997	          0.10509821	          0.05000034	          0.05000045	          0.05000050	          0.16839882	          0.10680141	          0.19877543	          0.05819582	          0.05000021	          0.05819575	          0.06380498	          0.24447306	          0.18610324	          0.22105113	          0.05819583	          0.05000080	          0.06793258	          0.09904609	          0.15624726	          0.25106510	          0.05000024	          0.05819577	          0.10019029	          0.05000029	          0.05000013	          0.05000017	          0.06085614	          0.06754883	          0.06062671	          0.06030288	          0.05819593	          0.05819573	          0.05819584	          0.05818914	          0.05819588	          0.51131889	          0.20840315	          0.16940532	          0.11192379	          0.61031396	          0.33929432	          0.05000000	          0.05000002	          0.05000003	          0.09167320	          0.05000003	          0.10056924	
          1.49490248	          1.97353684	         -2.70812917	         -2.82558582	          2.23093198	          0.89414720	          0.00173164	        -15.20695844	          4.30567140	          5.45012781	        -24.95350782	          8.30838016	         12.68793083	         19.15595871	         25.36667189	         -1.14481533	         -1.89137888	         -9.94904871	          8.25596760	          1.46655016	          0.23638350	          2.75909120	          3.80198930	          2.46823350	         -1.15619971	        -13.84147199	         13.29937491	         21.99977942	        -10.59720023	        -13.56175932	         13.39386941	         22.04314800	          0.12993539	          0.05000927	          0.06449310	          0.15977340	          0.08700610	          0.05819582	          0.05000076	          0.05000022	          0.05000072	          0.05000013	          0.05000589	          0.21454496	          0.24036734	          0.10477181	          0.05004895	          0.09365358	          0.09973239	          0.06682163	          0.05721393	          0.05000221	          0.05000138	          0.05001203	          0.12315542	          0.77997763	          0.12339219	          0.08335292	          0.05927753	          0.26737458	          0.12430805	          0.12430909	          0.12431179	          0.19879930	          0.19143773	          0.21834799	          0.18049644	          0.14312424	          0.17374646	          0.08803672	          0.08289419	          0.11749668	          0.05000015	          0.12053344	          0.05000038	          0.15907906	          0.05000012	          0.21924184	          0.05000041	          0.05000028	          0.05000037	          0.14468314	          0.09176054	          0.17078181	          0.05000039	          0.05964610	          0.05000015	          0.05481943	          0.27172833	          0.23743336	          0.24656971	          0.05000020	          0.05000085	          0.05836577	          0.15660384	          0.22539474	          0.31395334	          0.05000009	          0.05000016	          0.19113536	          0.06773531	          0.06782447	          0.05549995	          0.20679430	          0.20737653	          0.18101783	          0.05181040	          0.05000019	          0.05000000	          0.05000011	          0.05000013	          0.05000024	          0.70484143	          0.32835635	          0.19456368	          0.46361159	          0.75775506	          0.47581111	          0.05540936	          0.05000000	          0.05970949	          0.07876282	          0.05000011	          0.08640602	
          1.50473736	          1.99266044	         -2.68708899	         -2.89870042	          2.24881753	          0.89252788	          0.00145554	        -15.31575439	          4.09708392	          5.18977364	        -26.74973984	          6.80730936	         13.41364495	         20.03451702	         25.14986177	         -1.01731964	         -1.59279860	        -11.33378230	          6.50786235	          1.50194307	          0.24342228	          2.95431430	          3.55235667	          2.50343620	         -1.48204946	        -13.87759669	         13.55273587	         22.20498959	        -11.12853778	        -13.61164164	         13.25258347	         21.74148472	          0.11163653	          0.05000028	          0.05541056	          0.13727245	          0.07475304	          0.05000027	          0.05641787	          0.05000019	          0.05000022	          0.05000006	          0.05000076	          0.27053983	          0.30827065	          0.12081515	          0.05002632	          0.08048397	          0.08568709	          0.05819516	          0.05000522	          0.05029228	          0.05091660	          0.06099949	          0.10581140	          0.79483144	          0.10601498	          0.07161439	          0.05092947	          0.22972009	          0.10680179	          0.10680265	          0.10680493	          0.17080229	          0.16447747	          0.18759793	          0.15507705	          0.12296805	          0.14927770	          0.18730019	          0.08256131	          0.10563762	          0.05000055	          0.20030199	          0.05000034	          0.34224627	          0.38161664	          0.52843050	          0.33936997	          0.27075823	          0.33296048	          0.12430734	          0.07883791	          0.14673052	          0.05000019	          0.05124651	          0.05819586	          0.16420288	          0.23346093	          0.25161378	          0.27826190	          0.05000014	          0.05819634	          0.06773471	          0.31593449	          0.31305578	          0.38186626	          0.05819556	          0.05000019	          0.16421768	          0.05819615	          0.10680185	          0.05000004	          0.17767184	          0.22392123	          0.16883692	          0.05000001	          0.05000005	          0.05000000	          0.05000006	          0.05000028	          0.05000027	          0.82172744	          0.28211386	          0.16716323	          0.67602721	          0.85368668	          0.66983805	          0.08889336	          0.05358668	          0.05130058	          0.06767064	          0.06773476	          0.07423742	
